<svg width="35" height="35" viewBox="0 0 50 50" fill="none" xmlns="http://www.w3.org/2000/svg">
  <path d="M0 6.67019C0 5.0614 0.563079 3.73418 1.68919 2.68853C2.8153 1.64282 4.2793 1.12 6.08108 1.12C7.85072 1.12 9.28248 1.63476 10.3764 2.6644C11.5026 3.72617 12.0656 5.10967 12.0656 6.81498C12.0656 8.35938 11.5187 9.64635 10.4247 10.676C9.2986 11.7378 7.81853 12.2686 5.98456 12.2686H5.93629C4.16665 12.2686 2.73489 11.7378 1.64093 10.676C0.546959 9.6142 0 8.27892 0 6.67019ZM0.627413 48.8999V16.6605H11.3417V48.8999H0.627413ZM17.278 48.8999H27.9923V30.898C27.9923 29.7718 28.121 28.9031 28.3784 28.2918C28.8288 27.1978 29.5125 26.2728 30.4295 25.5167C31.3465 24.7606 32.4968 24.3825 33.8803 24.3825C37.4839 24.3825 39.2857 26.8117 39.2857 31.6702V48.8999H50V30.4154C50 25.6534 48.8739 22.0418 46.6216 19.5804C44.3694 17.119 41.3932 15.8883 37.693 15.8883C33.5425 15.8883 30.3089 17.674 27.9923 21.2455V21.342H27.944L27.9923 21.2455V16.6605H17.278C17.3423 17.6901 17.3745 20.8915 17.3745 26.2648C17.3745 31.638 17.3423 39.183 17.278 48.8999Z" fill="currentColor"/>
</svg>
